<svg width="408" height="74" viewBox="0 0 408 74" fill="none" xmlns="http://www.w3.org/2000/svg">
<g clip-path="url(#clip0_2070_103)">
<path d="M152.79 6.37859C152.79 9.89909 149.924 12.7572 146.385 12.7572C142.845 12.7572 139.98 9.89909 139.98 6.37859C139.98 2.85809 142.85 0 146.385 0C149.92 0 152.79 2.85809 152.79 6.37859Z" fill="#3F6EFF"/>
<path d="M35.5357 39.476H18.4144C14.3306 39.476 11.0235 36.1824 11.0235 32.1153V1.54257C11.0235 1.33412 10.8561 1.16736 10.6468 1.16736H0.376753C0.167446 1.16736 0 1.33412 0 1.54257V33.2919C0 42.7695 7.71645 50.4544 17.233 50.4544H35.5357C35.745 50.4544 35.9124 50.2876 35.9124 50.0792V39.8512C35.9124 39.6427 35.745 39.476 35.5357 39.476Z" fill="white"/>
<path d="M62.5364 0C47.457 0 38.4521 8.96801 38.4521 23.9857V27.4136C38.4521 41.982 47.9082 51.3993 62.5364 51.3993C77.1647 51.3993 86.6207 41.9866 86.6207 27.4136V23.9857C86.6207 8.96801 77.6158 0 62.5364 0ZM63.1922 41.8708H61.8806C56.22 41.8708 49.4757 39.1563 49.4757 26.2277V24.8659C49.4757 15.2123 53.9967 9.67674 61.8806 9.67674H63.1922C70.7273 9.67674 75.5972 15.6384 75.5972 24.8659V26.2277C75.5972 39.1563 68.8528 41.8708 63.1922 41.8708Z" fill="white"/>
<path d="M239.057 1.13952H239.038L208.312 1.16731C207.768 1.16731 207.326 1.61201 207.326 2.15398V50.0791C207.326 50.2876 207.493 50.4543 207.702 50.4543H217.972C218.182 50.4543 218.349 50.2876 218.349 50.0791V32.1709C218.349 31.9624 218.517 31.7957 218.726 31.7957H229.396C229.531 31.7957 229.656 31.8698 229.722 31.9856L240.099 49.9633C240.275 50.269 240.601 50.4543 240.954 50.4543H252.513C252.801 50.4543 252.987 50.1393 252.838 49.8892L242.438 31.8513C242.313 31.6382 242.429 31.3695 242.671 31.3047C248.531 29.7019 252.69 24.3378 252.69 18.2001V14.7259C252.69 10.0149 250.299 5.67448 246.094 3.06653C243.987 1.76024 241.526 1.13489 239.043 1.13489M241.792 15.5689V17.394C241.792 20.0854 239.592 22.2764 236.889 22.2764H218.349V10.6866H236.889C239.592 10.6866 241.792 12.8776 241.792 15.5689Z" fill="white"/>
<path d="M333.45 1.16736C320.166 1.16736 312.24 9.9964 312.24 24.7825V27.1635C312.24 33.3568 313.914 38.9849 316.956 43.0104C320.603 47.8372 326.189 50.3895 333.115 50.3895H351.803C352.013 50.3895 352.18 50.2228 352.18 50.0143V41.2223C352.18 41.0139 352.013 40.8471 351.803 40.8471H334.622C327.905 40.8471 323.342 35.8628 323.263 28.4512V24.1711C323.263 19.1358 324.821 10.682 335.264 10.682H351.803C352.013 10.682 352.18 10.5152 352.18 10.3068V1.54257C352.18 1.33412 352.013 1.16736 351.803 1.16736H333.45Z" fill="white"/>
<path d="M288.127 1.12097H276.913C276.764 1.12097 276.629 1.20898 276.569 1.34795L255.21 49.9262C255.103 50.1764 255.285 50.4543 255.555 50.4543H267.034C267.183 50.4543 267.318 50.3663 267.378 50.2273L271.294 41.3149C271.355 41.1759 271.49 41.0879 271.639 41.0879H293.397C293.546 41.0879 293.681 41.1759 293.742 41.3149L297.658 50.2273C297.718 50.3663 297.853 50.4543 298.002 50.4543H309.5C309.774 50.4543 309.956 50.1764 309.844 49.9262L288.472 1.34795C288.411 1.21362 288.276 1.12097 288.127 1.12097ZM282.867 16.5602L289.011 30.5449C289.118 30.7951 288.937 31.073 288.667 31.073H276.374C276.099 31.073 275.918 30.7951 276.029 30.5449L282.174 16.5602C282.304 16.2591 282.732 16.2591 282.867 16.5602Z" fill="white"/>
<path d="M380.32 26.0239C380.19 25.8803 380.19 25.6626 380.32 25.5236L401.614 1.75096C401.832 1.51009 401.66 1.12561 401.33 1.12561H388.209C387.925 1.12561 387.66 1.24605 387.474 1.4545L370.446 20.3957C370.213 20.6551 369.785 20.4884 369.785 20.1456V1.50082C369.785 1.29237 369.618 1.12561 369.408 1.12561H358.966C358.757 1.12561 358.59 1.29237 358.59 1.50082V50.0189C358.59 50.2273 358.757 50.3941 358.966 50.3941H369.404C369.613 50.3941 369.781 50.2273 369.781 50.0189V31.4066C369.781 31.0591 370.208 30.897 370.441 31.1564L387.465 50.0976C387.651 50.3061 387.92 50.4265 388.204 50.4265H401.358C401.684 50.4265 401.856 50.042 401.637 49.8012L380.311 26.0285L380.32 26.0239Z" fill="white"/>
<path d="M200.27 1.12097H182.288C181.925 1.12097 181.772 1.57493 182.06 1.79265C185.358 4.27553 187.832 7.78213 189.028 11.8307C189.074 11.9882 189.218 12.0994 189.386 12.0994H200.27C200.628 12.0994 200.921 11.9326 200.921 11.7242V1.50082C200.921 1.29236 200.632 1.1256 200.27 1.1256" fill="white"/>
<path d="M140.84 18.112V50.0791C140.84 50.2876 141.008 50.4543 141.217 50.4543H151.487C151.696 50.4543 151.864 50.2876 151.864 50.0791V18.1398C151.864 17.8619 151.575 17.6859 151.32 17.8017C149.817 18.4919 148.143 18.881 146.38 18.881C144.617 18.881 142.901 18.4826 141.38 17.7785C141.129 17.6581 140.836 17.8341 140.836 18.112" fill="white"/>
<path d="M54.1268 73.6989H53.1919C53.0384 73.6989 52.9314 73.6525 52.8709 73.5645C52.8105 73.4765 52.8058 73.3607 52.8616 73.2171L56.6152 63.3087C56.6896 63.091 56.8478 62.9799 57.085 62.9799H58.192C58.4245 62.9799 58.5827 63.091 58.6571 63.3087L62.4246 73.2171C62.4804 73.3607 62.4758 73.4765 62.4153 73.5645C62.3549 73.6525 62.2479 73.6989 62.0944 73.6989H61.1548C60.9176 73.6989 60.7595 73.5877 60.6851 73.37L59.9176 71.1789H55.3733L54.5965 73.37C54.5221 73.5877 54.364 73.6989 54.1268 73.6989ZM59.378 69.6271L57.6524 64.6475L55.9129 69.6271H59.378Z" fill="#3F6EFF"/>
<path d="M73.3365 72.6104V73.2867C73.3365 73.56 73.2016 73.699 72.9272 73.699H66.6713C66.3968 73.699 66.262 73.5646 66.262 73.2867V63.383C66.262 63.1097 66.3968 62.9707 66.6713 62.9707H67.4713C67.7457 62.9707 67.8853 63.105 67.8853 63.383V72.1981H72.9272C73.2016 72.1981 73.3365 72.3325 73.3365 72.6058" fill="#3F6EFF"/>
<path d="M79.5553 73.6989H78.7553C78.4809 73.6989 78.3413 73.5645 78.3413 73.2912V64.4761H75.5924C75.4622 64.4761 75.3599 64.439 75.2901 64.3649C75.2203 64.2908 75.1831 64.1889 75.1831 64.0592V63.3875C75.1831 63.1142 75.318 62.9752 75.5924 62.9752H82.7182C82.9926 62.9752 83.1275 63.1096 83.1275 63.3875V64.0592C83.1275 64.1889 83.0903 64.2908 83.0205 64.3649C82.9461 64.439 82.8484 64.4761 82.7182 64.4761H79.9693V73.2912C79.9693 73.5645 79.8344 73.6989 79.56 73.6989" fill="#3F6EFF"/>
<path d="M86.6207 73.6989H85.6858C85.5323 73.6989 85.4253 73.6525 85.3648 73.5645C85.3044 73.4765 85.2997 73.3607 85.3555 73.2171L89.1091 63.3087C89.1835 63.091 89.3417 62.9799 89.5789 62.9799H90.6859C90.9184 62.9799 91.0766 63.091 91.151 63.3087L94.9185 73.2171C94.9743 73.3607 94.9697 73.4765 94.9092 73.5645C94.8488 73.6525 94.7418 73.6989 94.5883 73.6989H93.6487C93.4115 73.6989 93.2534 73.5877 93.179 73.37L92.4115 71.1789H87.8672L87.0904 73.37C87.016 73.5877 86.8579 73.6989 86.6207 73.6989ZM91.8719 69.6271L90.1463 64.6475L88.4068 69.6271H91.8719Z" fill="#3F6EFF"/>
<path d="M108.509 73.6989H107.709C107.435 73.6989 107.295 73.5645 107.295 73.2912V64.4761H104.547C104.416 64.4761 104.314 64.439 104.244 64.3649C104.174 64.2908 104.137 64.1889 104.137 64.0592V63.3875C104.137 63.1142 104.272 62.9752 104.547 62.9752H111.672C111.947 62.9752 112.082 63.1096 112.082 63.3875V64.0592C112.082 64.1889 112.044 64.2908 111.975 64.3649C111.9 64.439 111.802 64.4761 111.672 64.4761H108.923V73.2912C108.923 73.5645 108.788 73.6989 108.514 73.6989" fill="#3F6EFF"/>
<path d="M123.249 72.6613V73.2867C123.249 73.4164 123.212 73.5183 123.138 73.5878C123.063 73.6573 122.961 73.6943 122.831 73.6943H116.44C116.165 73.6943 116.031 73.5554 116.031 73.2821V63.3783C116.031 63.105 116.165 62.9707 116.44 62.9707H122.831C122.961 62.9707 123.063 63.0078 123.138 63.0772C123.212 63.1467 123.249 63.2486 123.249 63.3783V63.9805C123.249 64.1102 123.212 64.2121 123.138 64.2863C123.063 64.3604 122.961 64.3974 122.831 64.3974H117.654V67.5983H122.379C122.654 67.5983 122.789 67.7373 122.789 68.0059V68.6081C122.789 68.7378 122.752 68.8397 122.682 68.9139C122.607 68.988 122.51 69.025 122.379 69.025H117.654V72.2398H122.831C122.961 72.2398 123.063 72.2769 123.138 72.3463C123.212 72.4158 123.249 72.5177 123.249 72.6474" fill="#3F6EFF"/>
<path d="M128.389 68.3487C128.389 69.655 128.752 70.6556 129.482 71.3411C130.212 72.0313 131.268 72.3741 132.659 72.3741C133.352 72.3741 133.98 72.2954 134.552 72.1333C134.696 72.0916 134.808 72.1055 134.892 72.1657C134.975 72.2305 135.017 72.3324 135.017 72.476V73.2172C135.017 73.4534 134.905 73.6109 134.687 73.6851C134.068 73.8935 133.329 74 132.454 74C131.468 74 130.608 73.8611 129.863 73.5785C129.124 73.3006 128.524 72.9022 128.073 72.3927C127.617 71.8831 127.282 71.2902 127.059 70.6139C126.836 69.9376 126.724 69.1825 126.724 68.3441C126.724 67.6817 126.794 67.0702 126.929 66.5051C127.063 65.94 127.282 65.4258 127.584 64.9487C127.882 64.4762 128.254 64.0732 128.696 63.7443C129.138 63.4154 129.677 63.156 130.315 62.9707C130.952 62.7854 131.664 62.6927 132.454 62.6927C133.343 62.6927 134.091 62.8086 134.701 63.0355C134.91 63.1235 135.017 63.2857 135.017 63.5127V64.2446C135.017 64.5503 134.864 64.6568 134.552 64.5734C133.952 64.3974 133.319 64.3094 132.659 64.3094C131.273 64.3094 130.217 64.6568 129.487 65.3517C128.756 66.0465 128.394 67.0424 128.394 68.3348" fill="#3F6EFF"/>
<path d="M140.166 73.6989H139.366C139.091 73.6989 138.952 73.5645 138.952 73.2912V63.3875C138.952 63.1142 139.087 62.9752 139.366 62.9752H140.068C140.287 62.9752 140.454 63.0586 140.566 63.23L145.882 70.7713V63.3875C145.882 63.1142 146.017 62.9752 146.296 62.9752H147.096C147.371 62.9752 147.506 63.1096 147.506 63.3875V73.2912C147.506 73.5645 147.366 73.6989 147.096 73.6989H146.389C146.171 73.6989 146.003 73.6108 145.896 73.4348L140.58 65.875V73.2866C140.58 73.5599 140.445 73.6942 140.171 73.6942" fill="#3F6EFF"/>
<path d="M156.548 74.0001C155.976 74.0001 155.445 73.9445 154.971 73.8379C154.497 73.7314 154.083 73.5832 153.738 73.3932C153.394 73.2033 153.087 72.9717 152.822 72.6938C152.557 72.4158 152.338 72.1194 152.166 71.8044C151.994 71.4894 151.855 71.1373 151.748 70.7482C151.641 70.3591 151.566 69.97 151.52 69.5855C151.478 69.1964 151.455 68.7842 151.455 68.3487C151.455 67.9133 151.473 67.4871 151.52 67.098C151.562 66.7089 151.636 66.3198 151.748 65.9307C151.855 65.5416 151.994 65.1895 152.166 64.8792C152.338 64.5642 152.557 64.2724 152.822 63.9944C153.087 63.7165 153.394 63.4849 153.743 63.2996C154.092 63.1143 154.501 62.9661 154.976 62.8595C155.45 62.753 155.976 62.702 156.548 62.702C157.343 62.702 158.045 62.8039 158.65 63.0124C159.255 63.2162 159.743 63.4895 160.115 63.8323C160.487 64.1704 160.794 64.592 161.027 65.0876C161.264 65.5833 161.422 66.0928 161.511 66.6163C161.599 67.1397 161.641 67.7187 161.641 68.3487C161.641 68.9787 161.599 69.5485 161.511 70.0719C161.422 70.5907 161.259 71.1049 161.027 71.6006C160.79 72.1008 160.487 72.5224 160.115 72.8605C159.743 73.2033 159.255 73.4766 158.65 73.6851C158.045 73.8935 157.348 73.9954 156.548 73.9954M155.427 72.3463C155.762 72.4344 156.134 72.4761 156.548 72.4761C156.962 72.4761 157.338 72.4344 157.673 72.3463C158.008 72.2583 158.297 72.1425 158.534 71.9989C158.771 71.8553 158.976 71.6747 159.152 71.457C159.329 71.2392 159.469 71.0169 159.576 70.7853C159.683 70.5537 159.766 70.2943 159.827 70.0071C159.887 69.7199 159.934 69.4466 159.957 69.1872C159.98 68.9324 159.99 68.6498 159.99 68.3441C159.99 68.0384 159.98 67.7604 159.957 67.501C159.934 67.2463 159.892 66.9729 159.827 66.6811C159.762 66.3939 159.678 66.1345 159.576 65.9029C159.469 65.6713 159.329 65.4489 159.152 65.2359C158.976 65.0228 158.771 64.8421 158.534 64.6985C158.297 64.5549 158.013 64.4391 157.673 64.3511C157.334 64.2631 156.962 64.2214 156.548 64.2214C156.134 64.2214 155.757 64.2631 155.422 64.3511C155.087 64.4391 154.799 64.5549 154.562 64.6985C154.324 64.8421 154.12 65.0228 153.943 65.2359C153.766 65.4489 153.627 65.6713 153.52 65.9029C153.413 66.1345 153.329 66.3939 153.269 66.6811C153.203 66.9683 153.162 67.2416 153.138 67.501C153.115 67.7604 153.106 68.0384 153.106 68.3441C153.106 68.6498 153.115 68.9231 153.138 69.1872C153.162 69.4512 153.203 69.7245 153.269 70.0117C153.334 70.2989 153.417 70.5583 153.52 70.7853C153.622 71.0169 153.762 71.2392 153.943 71.457C154.12 71.6747 154.329 71.8553 154.562 71.9989C154.799 72.1425 155.083 72.2583 155.417 72.3463" fill="#3F6EFF"/>
<path d="M172.529 72.6104V73.2867C172.529 73.56 172.395 73.699 172.12 73.699H165.864C165.59 73.699 165.455 73.5646 165.455 73.2867V63.383C165.455 63.1097 165.59 62.9707 165.864 62.9707H166.664C166.939 62.9707 167.078 63.105 167.078 63.383V72.1981H172.12C172.395 72.1981 172.529 72.3325 172.529 72.6058" fill="#3F6EFF"/>
<path d="M180.809 74.0001C180.237 74.0001 179.706 73.9445 179.232 73.8379C178.758 73.7314 178.344 73.5832 177.999 73.3932C177.655 73.2033 177.348 72.9717 177.083 72.6938C176.818 72.4158 176.599 72.1194 176.427 71.8044C176.255 71.4894 176.116 71.1373 176.009 70.7482C175.902 70.3591 175.827 69.97 175.781 69.5855C175.739 69.1964 175.716 68.7842 175.716 68.3487C175.716 67.9133 175.734 67.4871 175.781 67.098C175.823 66.7089 175.897 66.3198 176.009 65.9307C176.116 65.5416 176.255 65.1895 176.427 64.8792C176.599 64.5642 176.818 64.2724 177.083 63.9944C177.348 63.7165 177.655 63.4849 178.004 63.2996C178.353 63.1143 178.762 62.9661 179.237 62.8595C179.711 62.753 180.237 62.702 180.809 62.702C181.604 62.702 182.306 62.8039 182.911 63.0124C183.516 63.2162 184.004 63.4895 184.376 63.8323C184.748 64.1704 185.055 64.592 185.288 65.0876C185.525 65.5833 185.683 66.0928 185.772 66.6163C185.86 67.1397 185.902 67.7187 185.902 68.3487C185.902 68.9787 185.86 69.5485 185.772 70.0719C185.683 70.5907 185.52 71.1049 185.288 71.6006C185.051 72.1008 184.748 72.5224 184.376 72.8605C184.004 73.2033 183.516 73.4766 182.911 73.6851C182.306 73.8935 181.609 73.9954 180.809 73.9954M179.688 72.3463C180.023 72.4344 180.395 72.4761 180.809 72.4761C181.223 72.4761 181.599 72.4344 181.934 72.3463C182.269 72.2583 182.558 72.1425 182.795 71.9989C183.032 71.8553 183.237 71.6747 183.413 71.457C183.59 71.2392 183.73 71.0169 183.837 70.7853C183.944 70.5537 184.027 70.2943 184.088 70.0071C184.148 69.7199 184.195 69.4466 184.218 69.1872C184.241 68.9324 184.251 68.6498 184.251 68.3441C184.251 68.0384 184.241 67.7604 184.218 67.501C184.195 67.2463 184.153 66.9729 184.088 66.6811C184.023 66.3939 183.939 66.1345 183.837 65.9029C183.73 65.6713 183.59 65.4489 183.413 65.2359C183.237 65.0228 183.032 64.8421 182.795 64.6985C182.558 64.5549 182.274 64.4391 181.934 64.3511C181.599 64.2631 181.223 64.2214 180.809 64.2214C180.395 64.2214 180.018 64.2631 179.683 64.3511C179.348 64.4391 179.06 64.5549 178.823 64.6985C178.585 64.8421 178.381 65.0228 178.204 65.2359C178.027 65.4489 177.888 65.6713 177.781 65.9029C177.674 66.1345 177.59 66.3939 177.53 66.6811C177.464 66.9683 177.423 67.2416 177.399 67.501C177.376 67.7604 177.367 68.0384 177.367 68.3441C177.367 68.6498 177.376 68.9231 177.399 69.1872C177.423 69.4512 177.464 69.7245 177.53 70.0117C177.595 70.2989 177.678 70.5583 177.781 70.7853C177.883 71.0169 178.023 71.2392 178.204 71.457C178.381 71.6747 178.59 71.8553 178.823 71.9989C179.06 72.1425 179.344 72.2583 179.678 72.3463" fill="#3F6EFF"/>
<path d="M195.646 64.3187C194.255 64.3187 193.204 64.6568 192.483 65.3378C191.762 66.0187 191.404 67.0193 191.404 68.3441C191.404 69.6689 191.762 70.7019 192.479 71.3828C193.195 72.0591 194.251 72.4019 195.642 72.4019C196.074 72.4019 196.483 72.3741 196.87 72.3232V68.4367C196.87 68.307 196.907 68.2051 196.981 68.131C197.056 68.0569 197.158 68.0198 197.288 68.0198L198.088 68.0059C198.218 68.0059 198.321 68.043 198.39 68.1171C198.465 68.1912 198.497 68.2931 198.497 68.4228V73.2913C198.497 73.5415 198.377 73.6943 198.139 73.7406C197.428 73.9167 196.525 74.0047 195.437 74.0047C194.446 74.0047 193.586 73.8703 192.846 73.6063C192.107 73.3423 191.511 72.9578 191.055 72.4575C190.6 71.9572 190.265 71.3689 190.041 70.6834C189.818 70.0024 189.707 69.2242 189.707 68.3487C189.707 67.6539 189.776 67.0193 189.916 66.4449C190.055 65.8705 190.274 65.3517 190.572 64.8838C190.869 64.416 191.237 64.0268 191.683 63.7026C192.13 63.3783 192.669 63.1328 193.302 62.9614C193.935 62.79 194.646 62.702 195.437 62.702C196.507 62.702 197.409 62.8086 198.153 63.017C198.381 63.0726 198.497 63.2208 198.497 63.4663V64.277C198.497 64.4206 198.47 64.5271 198.414 64.592C198.358 64.6615 198.279 64.6754 198.181 64.6476C197.437 64.4298 196.586 64.3187 195.642 64.3187" fill="#3F6EFF"/>
<path d="M204.079 63.3875V73.2912C204.079 73.5645 203.944 73.6989 203.67 73.6989H202.87C202.595 73.6989 202.456 73.5599 202.456 73.2912V63.3875C202.456 63.1142 202.595 62.9799 202.87 62.9799H203.67C203.944 62.9799 204.079 63.1142 204.079 63.3875ZM202.8 61.7477L203.298 60.1681C203.363 59.9411 203.521 59.8253 203.763 59.8253H204.288C204.442 59.8253 204.549 59.8716 204.609 59.955C204.67 60.043 204.674 60.1588 204.619 60.3024L203.972 61.9006C203.898 62.109 203.735 62.2156 203.488 62.2156H203.144C203 62.2156 202.898 62.1692 202.833 62.0859C202.767 61.9978 202.758 61.8867 202.8 61.7477Z" fill="#3F6EFF"/>
<path d="M209.117 73.6989H208.182C208.028 73.6989 207.921 73.6525 207.861 73.5645C207.8 73.4765 207.796 73.3607 207.851 73.2171L211.605 63.3087C211.684 63.091 211.837 62.9799 212.079 62.9799H213.186C213.419 62.9799 213.577 63.091 213.651 63.3087L217.419 73.2171C217.475 73.3607 217.47 73.4765 217.41 73.5645C217.349 73.6525 217.242 73.6989 217.089 73.6989H216.149C215.912 73.6989 215.754 73.5877 215.679 73.37L214.912 71.1789H210.368L209.591 73.37C209.517 73.5877 209.358 73.6989 209.121 73.6989M214.368 69.6271L212.642 64.6475L210.903 69.6271H214.368Z" fill="#3F6EFF"/>
<path d="M233.852 72.6613V73.2867C233.852 73.4164 233.815 73.5183 233.74 73.5878C233.666 73.6573 233.563 73.6943 233.433 73.6943H227.042C226.768 73.6943 226.633 73.5554 226.633 73.2821V63.3783C226.633 63.105 226.768 62.9707 227.042 62.9707H233.433C233.563 62.9707 233.666 63.0078 233.74 63.0772C233.815 63.1467 233.852 63.2486 233.852 63.3783V63.9805C233.852 64.1102 233.815 64.2121 233.74 64.2863C233.666 64.3604 233.563 64.3974 233.433 64.3974H228.256V67.5983H232.982C233.256 67.5983 233.391 67.7373 233.391 68.0059V68.6081C233.391 68.7378 233.354 68.8397 233.284 68.9139C233.215 68.988 233.112 69.025 232.982 69.025H228.256V72.2398H233.433C233.563 72.2398 233.666 72.2769 233.74 72.3463C233.815 72.4158 233.852 72.5177 233.852 72.6474" fill="#3F6EFF"/>
<path d="M238.996 73.6989H238.196C237.922 73.6989 237.782 73.5645 237.782 73.2912V63.3875C237.782 63.1142 237.917 62.9752 238.196 62.9752H238.899C239.117 62.9752 239.285 63.0586 239.396 63.23L244.713 70.7713V63.3875C244.713 63.1142 244.848 62.9752 245.127 62.9752H245.927C246.201 62.9752 246.336 63.1096 246.336 63.3875V73.2912C246.336 73.5645 246.201 73.6989 245.927 73.6989H245.22C245.001 73.6989 244.834 73.6108 244.727 73.4348L239.41 65.875V73.2866C239.41 73.5599 239.271 73.6942 239.001 73.6942" fill="#3F6EFF"/>
<path d="M264.155 70.6834C264.155 71.7395 263.764 72.5548 262.987 73.1338C262.211 73.7128 261.16 74 259.834 74C258.253 74 256.922 73.7453 255.843 73.2404C255.643 73.1523 255.541 72.9948 255.541 72.7771L255.527 71.9387C255.527 71.7766 255.573 71.67 255.662 71.6144C255.75 71.5635 255.866 71.5727 256.011 71.6469C257.141 72.1796 258.346 72.4436 259.611 72.4436C260.476 72.4436 261.15 72.2861 261.625 71.9665C262.099 71.6515 262.336 71.2392 262.336 70.739C262.336 70.5537 262.308 70.3915 262.257 70.2479C262.206 70.1043 262.118 69.9793 261.997 69.8681C261.876 69.7615 261.746 69.6643 261.606 69.5855C261.467 69.5068 261.28 69.428 261.039 69.3493C260.801 69.2752 260.573 69.2103 260.36 69.1547C260.146 69.0991 259.866 69.0343 259.532 68.9509C259.415 68.9231 259.327 68.9046 259.271 68.8907C257.973 68.5757 257.039 68.1681 256.466 67.6724C255.894 67.1768 255.611 66.5792 255.611 65.8705C255.611 64.8514 255.973 64.0639 256.699 63.5173C257.425 62.9707 258.49 62.6927 259.89 62.6927C261.29 62.6927 262.439 62.9151 263.457 63.3644C263.662 63.4524 263.76 63.6146 263.76 63.8462V64.5595C263.76 64.717 263.713 64.8236 263.625 64.8792C263.536 64.9348 263.42 64.9301 263.276 64.8606C262.29 64.4113 261.239 64.189 260.113 64.189C258.355 64.189 257.476 64.7495 257.476 65.8658C257.476 66.0048 257.504 66.1345 257.555 66.2503C257.606 66.3707 257.666 66.4727 257.741 66.5607C257.815 66.6487 257.922 66.7321 258.066 66.8108C258.206 66.8896 258.341 66.959 258.466 67.01C258.592 67.0656 258.759 67.1212 258.969 67.186C259.178 67.2462 259.36 67.2972 259.513 67.3389C259.666 67.3759 259.871 67.4269 260.122 67.4917C260.378 67.5566 260.583 67.6076 260.746 67.6539C261.597 67.8531 262.276 68.1032 262.783 68.3997C263.29 68.6961 263.648 69.025 263.853 69.3863C264.057 69.7476 264.16 70.1784 264.16 70.6741" fill="#3F6EFF"/>
<path d="M275.09 72.6613V73.2867C275.09 73.4164 275.053 73.5183 274.978 73.5878C274.904 73.6573 274.802 73.6943 274.671 73.6943H268.28C268.006 73.6943 267.871 73.5554 267.871 73.2821V63.3783C267.871 63.105 268.006 62.9707 268.28 62.9707H274.671C274.802 62.9707 274.904 63.0078 274.978 63.0772C275.053 63.1467 275.09 63.2486 275.09 63.3783V63.9805C275.09 64.1102 275.053 64.2121 274.978 64.2863C274.904 64.3604 274.802 64.3974 274.671 64.3974H269.494V67.5983H274.22C274.495 67.5983 274.629 67.7373 274.629 68.0059V68.6081C274.629 68.7378 274.592 68.8397 274.522 68.9139C274.453 68.988 274.35 69.025 274.22 69.025H269.494V72.2398H274.671C274.802 72.2398 274.904 72.2769 274.978 72.3463C275.053 72.4158 275.09 72.5177 275.09 72.6474" fill="#3F6EFF"/>
<path d="M284.495 64.3187C283.104 64.3187 282.053 64.6568 281.332 65.3378C280.611 66.0187 280.253 67.0193 280.253 68.3441C280.253 69.6689 280.611 70.7019 281.327 71.3828C282.044 72.0591 283.099 72.4019 284.49 72.4019C284.923 72.4019 285.332 72.3741 285.718 72.3232V68.4367C285.718 68.307 285.755 68.2051 285.83 68.131C285.904 68.0569 286.007 68.0198 286.137 68.0198L286.937 68.0059C287.067 68.0059 287.169 68.043 287.239 68.1171C287.314 68.1912 287.346 68.2931 287.346 68.4228V73.2913C287.346 73.5415 287.225 73.6943 286.988 73.7406C286.272 73.9167 285.374 74.0047 284.286 74.0047C283.295 74.0047 282.434 73.8703 281.695 73.6063C280.955 73.3423 280.36 72.9578 279.904 72.4575C279.448 71.9572 279.113 71.3689 278.89 70.6834C278.667 70.0024 278.555 69.2242 278.555 68.3487C278.555 67.6539 278.625 67.0193 278.764 66.4449C278.904 65.8705 279.123 65.3517 279.42 64.8838C279.718 64.416 280.09 64.0268 280.532 63.7026C280.978 63.3783 281.518 63.1328 282.151 62.9614C282.783 62.79 283.495 62.702 284.29 62.702C285.36 62.702 286.262 62.8086 287.007 63.017C287.234 63.0726 287.351 63.2208 287.351 63.4663V64.277C287.351 64.4206 287.323 64.5271 287.267 64.592C287.211 64.6615 287.132 64.6754 287.034 64.6476C286.29 64.4298 285.439 64.3187 284.495 64.3187Z" fill="#3F6EFF"/>
<path d="M298.481 69.3816V63.3875C298.481 63.1142 298.616 62.9799 298.891 62.9799H299.719C299.993 62.9799 300.128 63.1188 300.128 63.3875V69.289C300.128 69.78 300.091 70.2386 300.021 70.6601C299.951 71.0816 299.812 71.5032 299.612 71.9247C299.407 72.3462 299.146 72.7076 298.83 73.004C298.509 73.3005 298.086 73.5414 297.556 73.7266C297.025 73.9119 296.412 74.0046 295.714 74.0046C295.016 74.0046 294.402 73.9119 293.872 73.7266C293.337 73.5414 292.914 73.3005 292.593 73.004C292.272 72.7076 292.016 72.3509 291.816 71.9247C291.616 71.5032 291.481 71.0816 291.407 70.6601C291.332 70.2386 291.3 69.7846 291.3 69.289V63.3875C291.3 63.1142 291.439 62.9799 291.709 62.9799H292.537C292.811 62.9799 292.946 63.1188 292.946 63.3875V69.3816C292.946 71.443 293.867 72.4759 295.709 72.4759C297.551 72.4759 298.472 71.443 298.472 69.3816" fill="#3F6EFF"/>
<path d="M309.988 70.4146L312.161 73.1893C312.263 73.3283 312.291 73.4487 312.24 73.5506C312.188 73.6525 312.082 73.7035 311.909 73.7035H310.937C310.733 73.7035 310.565 73.6201 310.43 73.4533L308.235 70.674H305.695V73.2912C305.695 73.5645 305.56 73.6989 305.286 73.6989H304.486C304.212 73.6989 304.072 73.5645 304.072 73.2912V63.3875C304.072 63.1142 304.212 62.9752 304.486 62.9752H307.923C309.426 62.9752 310.519 63.2856 311.202 63.9109C311.886 64.5363 312.23 65.5415 312.23 66.9312C312.23 67.8947 312.049 68.659 311.681 69.2241C311.314 69.7892 310.751 70.1876 309.993 70.4146M307.798 64.4344H305.695V69.3029H307.798C308.774 69.3029 309.477 69.1176 309.914 68.747C310.351 68.3764 310.57 67.7789 310.57 66.9451C310.57 66.0418 310.351 65.3979 309.923 65.0134C309.491 64.6289 308.784 64.4344 307.802 64.4344" fill="#3F6EFF"/>
<path d="M317.831 63.3875V73.2912C317.831 73.5645 317.691 73.6989 317.421 73.6989H316.621C316.347 73.6989 316.212 73.5645 316.212 73.2912V63.3875C316.212 63.1142 316.351 62.9799 316.621 62.9799H317.421C317.696 62.9799 317.831 63.1142 317.831 63.3875Z" fill="#3F6EFF"/>
<path d="M325.686 73.6989H322.179C321.905 73.6989 321.77 73.5645 321.77 73.2912V63.3875C321.77 63.1142 321.905 62.9799 322.179 62.9799H325.686C326.263 62.9799 326.793 63.0308 327.272 63.1281C327.747 63.2254 328.161 63.3643 328.51 63.5357C328.859 63.7118 329.166 63.9295 329.431 64.1889C329.696 64.4529 329.914 64.7308 330.086 65.0273C330.259 65.3238 330.398 65.6573 330.5 66.0279C330.607 66.3984 330.682 66.769 330.724 67.1442C330.766 67.5194 330.789 67.9178 330.789 68.3486C330.789 68.7794 330.77 69.1871 330.728 69.5576C330.687 69.9282 330.617 70.2988 330.514 70.6694C330.412 71.0399 330.277 71.3735 330.11 71.6653C329.942 71.9571 329.728 72.2351 329.463 72.4945C329.198 72.7539 328.891 72.9716 328.542 73.143C328.193 73.3144 327.779 73.4487 327.296 73.5506C326.817 73.6479 326.282 73.6989 325.691 73.6989M325.71 64.4992H323.393V72.1702H325.71C326.124 72.1702 326.5 72.1332 326.835 72.0544C327.17 71.9803 327.459 71.8784 327.696 71.7487C327.933 71.619 328.138 71.4615 328.314 71.2623C328.491 71.0677 328.631 70.8639 328.738 70.6508C328.845 70.4424 328.928 70.2015 328.989 69.9328C329.054 69.6642 329.096 69.4048 329.119 69.1593C329.142 68.9091 329.152 68.6404 329.152 68.344C329.152 67.9271 329.128 67.5472 329.077 67.2091C329.026 66.8709 328.928 66.5235 328.775 66.1761C328.626 65.8287 328.426 65.5369 328.179 65.3006C327.933 65.0644 327.603 64.8744 327.179 64.7262C326.761 64.578 326.268 64.4992 325.705 64.4992" fill="#3F6EFF"/>
<path d="M334.78 73.6989H333.845C333.691 73.6989 333.584 73.6525 333.524 73.5645C333.464 73.4765 333.459 73.3607 333.515 73.2171L337.268 63.3087C337.347 63.091 337.501 62.9799 337.743 62.9799H338.85C339.082 62.9799 339.24 63.091 339.315 63.3087L343.082 73.2171C343.138 73.3607 343.134 73.4765 343.073 73.5645C343.013 73.6525 342.906 73.6989 342.752 73.6989H341.813C341.575 73.6989 341.417 73.5877 341.343 73.37L340.575 71.1789H336.031L335.254 73.37C335.18 73.5877 335.022 73.6989 334.78 73.6989ZM340.031 69.6271L338.306 64.6475L336.566 69.6271H340.031Z" fill="#3F6EFF"/>
<path d="M350.831 73.6989H347.324C347.05 73.6989 346.915 73.5645 346.915 73.2912V63.3875C346.915 63.1142 347.05 62.9799 347.324 62.9799H350.831C351.408 62.9799 351.938 63.0308 352.417 63.1281C352.892 63.2254 353.306 63.3643 353.655 63.5357C354.003 63.7118 354.31 63.9295 354.575 64.1889C354.841 64.4529 355.059 64.7308 355.231 65.0273C355.403 65.3238 355.543 65.6573 355.645 66.0279C355.752 66.3984 355.827 66.769 355.868 67.1442C355.91 67.5194 355.934 67.9178 355.934 68.3486C355.934 68.7794 355.915 69.1871 355.873 69.5576C355.831 69.9282 355.762 70.2988 355.659 70.6694C355.557 71.0399 355.422 71.3735 355.255 71.6653C355.087 71.9571 354.873 72.2351 354.608 72.4945C354.343 72.7539 354.036 72.9716 353.687 73.143C353.338 73.3144 352.924 73.4487 352.441 73.5506C351.957 73.6525 351.427 73.6989 350.836 73.6989M350.859 64.4992H348.543V72.1702H350.859C351.273 72.1702 351.65 72.1332 351.985 72.0544C352.32 71.9803 352.608 71.8784 352.845 71.7487C353.082 71.619 353.287 71.4615 353.464 71.2623C353.641 71.0677 353.78 70.8639 353.887 70.6508C353.994 70.4424 354.078 70.2015 354.138 69.9328C354.203 69.6642 354.245 69.4048 354.268 69.1593C354.292 68.9091 354.301 68.6404 354.301 68.344C354.301 67.9271 354.278 67.5472 354.227 67.2091C354.175 66.8709 354.078 66.5235 353.924 66.1761C353.775 65.8287 353.575 65.5369 353.329 65.3006C353.082 65.0644 352.752 64.8744 352.329 64.7262C351.91 64.578 351.417 64.4992 350.854 64.4992" fill="#3F6EFF"/>
<path d="M404.084 47.2581V48.8284H403.614V45.2662H405.009C405.744 45.2662 406.135 45.6646 406.135 46.2205C406.135 46.6837 405.87 46.9663 405.525 47.0589C405.818 47.1377 406.07 47.3554 406.07 47.9715V48.1243C406.07 48.3698 406.056 48.6802 406.116 48.8284H405.656C405.591 48.6756 405.595 48.3976 405.595 48.0641V47.99C405.595 47.4851 405.451 47.2627 404.809 47.2627H404.079L404.084 47.2581ZM404.084 46.8597H404.86C405.405 46.8597 405.646 46.6559 405.646 46.2529C405.646 45.8731 405.4 45.66 404.911 45.66H404.079V46.8597H404.084Z" fill="white"/>
<path d="M404.809 50.1625C403.051 50.1625 401.623 48.7404 401.623 46.9894C401.623 45.2384 403.051 43.8163 404.809 43.8163C406.567 43.8163 407.995 45.243 407.995 46.9894C407.995 48.7357 406.567 50.1625 404.809 50.1625ZM404.809 44.1961C403.265 44.1961 402.004 45.4468 402.004 46.9894C402.004 48.5319 403.26 49.7826 404.809 49.7826C406.358 49.7826 407.614 48.5273 407.614 46.9894C407.614 45.4515 406.358 44.1961 404.809 44.1961Z" fill="white"/>
<path d="M167.981 1.16736H158.292C158.022 1.16736 157.85 1.43603 157.952 1.68617C158.548 3.13606 158.887 4.71565 158.887 6.38326C158.887 8.25468 158.469 10.0242 157.725 11.6131C157.608 11.8632 157.78 12.1504 158.059 12.1504H166.799C170.883 12.1504 174.19 15.4439 174.19 19.511V50.0792C174.19 50.2876 174.357 50.4544 174.567 50.4544H184.837C185.046 50.4544 185.214 50.2876 185.214 50.0792V18.3298C185.214 8.85224 177.497 1.16736 167.981 1.16736Z" fill="white"/>
<path d="M134.817 1.68617C134.919 1.43603 134.747 1.16736 134.477 1.16736H110.375C97.0906 1.16736 89.1602 9.9964 89.1602 24.7825V27.1635C89.1602 33.3568 90.8346 38.9849 93.8765 43.0104C97.5231 47.8372 103.109 50.3895 110.035 50.3895H134.091C134.301 50.3895 134.468 50.2228 134.468 50.0143V21.3083C134.468 21.0999 134.301 20.9331 134.091 20.9331H113.951C113.742 20.9331 113.575 21.0999 113.575 21.3083V30.1513C113.575 30.3597 113.742 30.5265 113.951 30.5265H123.221C123.431 30.5265 123.598 30.6932 123.598 30.9017V40.8425H111.547C104.83 40.8425 100.267 35.8582 100.188 28.4466V24.1664C100.188 19.1312 101.746 10.6773 112.189 10.6773H134.152C134.408 10.6773 134.58 10.4318 134.501 10.1863C134.11 8.98194 133.887 7.70345 133.887 6.36936C133.887 4.70639 134.222 3.12216 134.822 1.67227" fill="white"/>
</g>
<defs>
<clipPath id="clip0_2070_103">
<rect width="408" height="74" fill="white"/>
</clipPath>
</defs>
</svg>
